<?xml version="1.0" standalone="no"?>
<!DOCTYPE svg PUBLIC "-//W3C//DTD SVG 20010904//EN"
 "http://www.w3.org/TR/2001/REC-SVG-20010904/DTD/svg10.dtd">
<svg version="1.0" xmlns="http://www.w3.org/2000/svg"
 width="260.000000pt" height="260.000000pt" viewBox="0 0 260.000000 260.000000"
 preserveAspectRatio="xMidYMid meet">
<metadata>
Created by potrace 1.14, written by Peter Selinger 2001-2017
</metadata>
<g transform="translate(0.000000,260.000000) scale(0.100000,-0.100000)"
fill="#000000" stroke="none">
<path d="M0 1300 l0 -1300 1300 0 1300 0 0 1300 0 1300 -1300 0 -1300 0 0
-1300z m1610 850 l0 -360 -365 0 -365 0 0 360 0 360 365 0 365 0 0 -360z m900
0 l0 -360 -400 0 -400 0 0 360 0 360 400 0 400 0 0 -360z m-1730 -840 l0 -380
-355 0 -355 0 0 380 0 380 355 0 355 0 0 -380z m1730 0 l0 -380 -400 0 -400 0
0 380 0 380 400 0 400 0 0 -380z m-1730 -845 l0 -365 -350 0 -350 0 0 365 0
365 350 0 350 0 0 -365z m830 -5 l0 -370 -365 0 -365 0 0 370 0 370 365 0 365
0 0 -370z"/>
</g>
</svg>
